<?xml version="1.0" standalone="no"?><!DOCTYPE svg PUBLIC "-//W3C//DTD SVG 1.1//EN" "http://www.w3.org/Graphics/SVG/1.1/DTD/svg11.dtd"><svg t="1557119554797" class="icon" style="" viewBox="0 0 1024 1024" version="1.1" xmlns="http://www.w3.org/2000/svg" p-id="3438" xmlns:xlink="http://www.w3.org/1999/xlink" width="128" height="128"><defs><style type="text/css"></style></defs><path d="M128 281.6h109.568c77.824 0 150.528 32.768 197.632 91.136 5.12 6.144 12.288 9.216 19.456 9.216 6.144 0 11.264-2.048 16.384-6.144 11.264-9.216 12.288-25.6 3.072-35.84C416.768 270.336 330.752 230.4 236.544 230.4H128c-14.336 0-25.6 11.264-25.6 25.6s11.264 25.6 25.6 25.6z" fill="#FFFFFF" p-id="3439"></path><path d="M769.024 281.6h65.536l-32.768 32.768c-10.24 10.24-10.24 26.624 0 35.84 5.12 5.12 11.264 7.168 18.432 7.168 6.144 0 13.312-2.048 18.432-7.168l76.8-76.8c5.12-5.12 7.168-11.264 7.168-18.432s-3.072-13.312-7.168-18.432l-76.8-76.8c-10.24-10.24-26.624-10.24-35.84 0-10.24 10.24-10.24 26.624 0 35.84l32.768 32.768h-65.536c-155.648 0-282.624 125.952-282.624 281.6 0 126.976-111.616 230.4-248.832 230.4H128c-14.336 0-25.6 11.264-25.6 25.6s11.264 25.6 25.6 25.6h109.568c164.864 0 300.032-125.952 300.032-281.6 0-124.928 103.424-228.352 231.424-228.352z" fill="#FFFFFF" p-id="3440"></path><path d="M836.608 672.768c-10.24-10.24-26.624-10.24-35.84 0s-10.24 26.624 0 35.84l32.768 32.768H768c-73.728 0-141.312-33.792-185.344-93.184-8.192-11.264-24.576-13.312-35.84-5.12s-13.312 24.576-5.12 35.84C594.944 749.568 679.936 792.576 768 792.576h65.536l-32.768 32.768c-10.24 10.24-10.24 26.624 0 35.84 5.12 5.12 11.264 7.168 18.432 7.168 6.144 0 13.312-2.048 18.432-7.168l76.8-76.8c5.12-5.12 7.168-11.264 7.168-18.432s-3.072-13.312-7.168-18.432l-77.824-74.752z" fill="#FFFFFF" p-id="3441"></path></svg>