<?xml version="1.0" standalone="no"?><!DOCTYPE svg PUBLIC "-//W3C//DTD SVG 1.1//EN" "http://www.w3.org/Graphics/SVG/1.1/DTD/svg11.dtd"><svg t="1557119527822" class="icon" style="" viewBox="0 0 1024 1024" version="1.1" xmlns="http://www.w3.org/2000/svg" p-id="3189" xmlns:xlink="http://www.w3.org/1999/xlink" width="128" height="128"><defs><style type="text/css"></style></defs><path d="M651.359 808.636h-76.383l153.322 85.514c6.847 3.819 9.193 12.276 5.24 18.889l-14.315 23.951c-3.953 6.615-12.708 8.88-19.555 5.063L476.525 817.596a13.793 13.793 0 0 1-6.767-8.96H459.62l28.129-53.982h158.79c141.687 0 256.55-108.764 256.55-242.93 0-105.273-70.732-194.88-169.638-228.603l25.79-49.495c116.697 42.18 199.788 150.757 199.788 278.099 0 163.98-137.749 296.911-307.67 296.911z m-274.877-539.84c-141.692 0-256.552 108.762-256.552 242.928 0 122.23 95.347 223.337 219.45 240.366l-26.602 51.05C171.033 776.623 63.99 656.265 63.99 511.726c0-163.98 137.747-296.913 307.67-296.913h132.321L350.661 129.3c-6.848-3.82-9.193-12.277-5.24-18.89l14.315-23.952c3.95-6.612 12.708-8.88 19.554-5.06l223.14 124.455a13.786 13.786 0 0 1 6.769 8.96h10.14l-28.129 53.983H376.482z" fill="#FFFFFF" p-id="3190"></path></svg>