<?xml version="1.0" standalone="no"?><!DOCTYPE svg PUBLIC "-//W3C//DTD SVG 1.1//EN" "http://www.w3.org/Graphics/SVG/1.1/DTD/svg11.dtd"><svg t="1557119540221" class="icon" style="" viewBox="0 0 1024 1024" version="1.1" xmlns="http://www.w3.org/2000/svg" p-id="3313" xmlns:xlink="http://www.w3.org/1999/xlink" width="128" height="128"><defs><style type="text/css"></style></defs><path d="M494.933 760.415H384.948c-64.474 0-125.155-26.548-170.667-72.06-45.51-45.51-72.059-108.088-72.059-174.459 0-66.37 26.548-128.948 72.06-174.459 45.51-45.511 106.192-72.06 170.666-72.06 15.17 0 28.445-13.273 28.445-28.444s-13.274-28.444-28.445-28.444c-79.644 0-155.496 32.237-212.385 89.126-54.993 56.889-87.23 132.74-87.23 214.281s32.237 157.393 87.23 214.282c54.993 56.889 130.844 89.126 212.385 89.126h43.615l-43.615 45.51c-11.378 11.379-11.378 28.445 0 39.823s28.445 11.378 39.822 0l92.919-92.918c15.17-18.963 3.792-49.304-22.756-49.304zM870.4 305.304c-54.993-56.89-130.844-89.126-212.385-89.126H614.4l43.615-45.511c11.378-11.378 11.378-28.445 0-39.823-11.378-11.377-28.445-11.377-39.822 0l-92.919 92.919c-17.067 17.067-5.689 49.304 20.86 49.304h109.985c64.474 0 125.155 26.548 170.666 72.059 45.511 45.511 72.06 108.089 72.06 174.46 0 66.37-26.549 128.947-72.06 174.458-45.51 45.512-106.192 72.06-170.666 72.06-15.17 0-28.445 13.274-28.445 28.444s13.274 28.445 28.445 28.445c79.644 0 155.496-32.237 212.385-89.126 54.992-56.89 87.23-132.741 87.23-214.282 1.896-81.54-30.341-157.392-85.334-214.281z" fill="#FFFFFF" p-id="3314"></path><path d="M521.481 345.126L460.8 392.533c-13.274 9.482-15.17 26.548-5.689 39.823 9.482 13.274 26.548 15.17 39.822 5.688l15.17-11.377v237.037c0 15.17 13.275 28.444 28.445 28.444s28.445-13.274 28.445-28.444V367.88c0-22.755-26.549-36.03-45.512-22.755z" fill="#FFFFFF" p-id="3315"></path></svg>